<svg xmlns="http://www.w3.org/2000/svg" xmlns:xlink="http://www.w3.org/1999/xlink" xmlns:lucid="lucid" width="1232.5" height="543.97"><g transform="translate(-47.500054386186974 0)" lucid:page-tab-id="fwQcDkAJnwES"><path d="M0 0h1360v1760H0z" fill="#fff"/><path d="M540 26a6 6 0 0 1 6-6h328a6 6 0 0 1 6 6v252a6 6 0 0 1-6 6H546a6 6 0 0 1-6-6z" fill="#f5fbff"/><path d="M540 26a6 6 0 0 1 6-6h328a6 6 0 0 1 6 6v252a6 6 0 0 1-6 6H546a6 6 0 0 1-6-6zM540 60h340M696 60v224" stroke="#4881b3" stroke-width="3" fill="none"/><use xlink:href="#a" transform="matrix(1,0,0,1,550,20) translate(121.4391975308642 24.488888888888887)"/><use xlink:href="#b" transform="matrix(1,0,0,1,545,62.5) translate(0 17.1)"/><use xlink:href="#c" transform="matrix(1,0,0,1,701,62.5) translate(0 17.1)"/><use xlink:href="#d" transform="matrix(1,0,0,1,545,94.5) translate(0 17.1)"/><use xlink:href="#e" transform="matrix(1,0,0,1,701,94.5) translate(0 17.1)"/><use xlink:href="#f" transform="matrix(1,0,0,1,545,126.5) translate(0 17.1)"/><use xlink:href="#e" transform="matrix(1,0,0,1,701,126.5) translate(0 17.1)"/><use xlink:href="#g" transform="matrix(1,0,0,1,545,158.5) translate(0 17.1)"/><use xlink:href="#c" transform="matrix(1,0,0,1,701,158.5) translate(0 17.1)"/><use xlink:href="#h" transform="matrix(1,0,0,1,545,190.5) translate(0 17.1)"/><use xlink:href="#c" transform="matrix(1,0,0,1,701,190.5) translate(0 17.1)"/><use xlink:href="#i" transform="matrix(1,0,0,1,545,222.5) translate(0 17.1)"/><use xlink:href="#e" transform="matrix(1,0,0,1,701,222.5) translate(0 17.1)"/><use xlink:href="#j" transform="matrix(1,0,0,1,545,254.5) translate(0 17.1)"/><use xlink:href="#k" transform="matrix(1,0,0,1,701,254.5) translate(0 17.1)"/><path d="M980 26a6 6 0 0 1 6-6h268a6 6 0 0 1 6 6v220a6 6 0 0 1-6 6H986a6 6 0 0 1-6-6z" fill="#f5fbff"/><path d="M980 26a6 6 0 0 1 6-6h268a6 6 0 0 1 6 6v220a6 6 0 0 1-6 6H986a6 6 0 0 1-6-6zM980 60h280M1116 60v192" stroke="#4881b3" stroke-width="3" fill="none"/><use xlink:href="#l" transform="matrix(1,0,0,1,990,20) translate(90.81574074074075 24.488888888888887)"/><use xlink:href="#b" transform="matrix(1,0,0,1,985,62.5) translate(0 17.1)"/><use xlink:href="#c" transform="matrix(1,0,0,1,1121,62.5) translate(0 17.1)"/><use xlink:href="#m" transform="matrix(1,0,0,1,985,94.5) translate(0 17.1)"/><use xlink:href="#n" transform="matrix(1,0,0,1,1121,94.5) translate(0 17.1)"/><use xlink:href="#o" transform="matrix(1,0,0,1,1121,94.5) translate(23.95 17.1)"/><use xlink:href="#p" transform="matrix(1,0,0,1,985,126.5) translate(0 17.1)"/><use xlink:href="#c" transform="matrix(1,0,0,1,1121,126.5) translate(0 17.1)"/><use xlink:href="#d" transform="matrix(1,0,0,1,985,158.5) translate(0 17.1)"/><use xlink:href="#e" transform="matrix(1,0,0,1,1121,158.5) translate(0 17.1)"/><use xlink:href="#q" transform="matrix(1,0,0,1,985,190.5) translate(0 17.1)"/><use xlink:href="#r" transform="matrix(1,0,0,1,1121,190.5) translate(0 17.1)"/><use xlink:href="#s" transform="matrix(1,0,0,1,985,222.5) translate(0 17.1)"/><use xlink:href="#r" transform="matrix(1,0,0,1,1121,222.5) translate(0 17.1)"/><path d="M881.5 76H924a6 6 0 0 1 6 6v19.7a6 6 0 0 0 6 6h23.68M882.5 61v30" stroke="#224c72" stroke-width="2" fill="none"/><path d="M978.05 117.7l-20-10 20-10" stroke="#224c72" stroke-width="2" fill="#fff" fill-opacity="0"/><path d="M978.05 107.7h-20" stroke="#224c72" stroke-width="2" fill="#fff"/><path d="M100 26a6 6 0 0 1 6-6h328a6 6 0 0 1 6 6v156a6 6 0 0 1-6 6H106a6 6 0 0 1-6-6z" fill="#f5fbff"/><path d="M100 26a6 6 0 0 1 6-6h328a6 6 0 0 1 6 6v156a6 6 0 0 1-6 6H106a6 6 0 0 1-6-6zM100 60h340M212 60v128" stroke="#4881b3" stroke-width="3" fill="none"/><use xlink:href="#t" transform="matrix(1,0,0,1,110,20) translate(135.0929012345679 24.488888888888887)"/><use xlink:href="#b" transform="matrix(1,0,0,1,105,62.5) translate(0 17.1)"/><use xlink:href="#c" transform="matrix(1,0,0,1,217,62.5) translate(0 17.1)"/><use xlink:href="#d" transform="matrix(1,0,0,1,105,94.5) translate(0 17.1)"/><use xlink:href="#e" transform="matrix(1,0,0,1,217,94.5) translate(0 17.1)"/><use xlink:href="#u" transform="matrix(1,0,0,1,105,126.5) translate(0 17.1)"/><use xlink:href="#v" transform="matrix(1,0,0,1,217,126.5) translate(0 17.1)"/><use xlink:href="#w" transform="matrix(1,0,0,1,105,158.5) translate(0 17.1)"/><use xlink:href="#x" transform="matrix(1,0,0,1,217,158.5) translate(0 17.1)"/><path d="M519.68 140H496a6 6 0 0 1-6-6V81.75a6 6 0 0 0-6-6h-42.5" stroke="#224c72" stroke-width="2" fill="none"/><path d="M538.05 150l-20-10 20-10" stroke="#224c72" stroke-width="2" fill="#fff" fill-opacity="0"/><path d="M538.05 140h-20" stroke="#224c72" stroke-width="2" fill="#fff"/><path d="M442.5 60.75v30" stroke="#224c72" stroke-width="2" fill="none"/><path d="M100 393.97a6 6 0 0 1 6-6h328a6 6 0 0 1 6 6v92a6 6 0 0 1-6 6H106a6 6 0 0 1-6-6z" fill="#f5fbff"/><path d="M100 393.97a6 6 0 0 1 6-6h328a6 6 0 0 1 6 6v92a6 6 0 0 1-6 6H106a6 6 0 0 1-6-6zM100 427.97h340M200 427.97v64" stroke="#4881b3" stroke-width="3" fill="none"/><use xlink:href="#y" transform="matrix(1,0,0,1,110,387.9657153283412) translate(111.49506172839507 24.488888888888887)"/><use xlink:href="#b" transform="matrix(1,0,0,1,105,430.4657153283412) translate(0 17.1)"/><use xlink:href="#c" transform="matrix(1,0,0,1,205,430.4657153283412) translate(0 17.1)"/><use xlink:href="#d" transform="matrix(1,0,0,1,105,462.4657153283412) translate(0 17.1)"/><use xlink:href="#v" transform="matrix(1,0,0,1,205,462.4657153283412) translate(0 17.1)"/><path d="M600 393.97a6 6 0 0 1 6-6h268a6 6 0 0 1 6 6v124a6 6 0 0 1-6 6H606a6 6 0 0 1-6-6z" fill="#f5fbff"/><path d="M600 393.97a6 6 0 0 1 6-6h268a6 6 0 0 1 6 6v124a6 6 0 0 1-6 6H606a6 6 0 0 1-6-6zM600 427.97h280M700 427.97v96" stroke="#4881b3" stroke-width="3" fill="none"/><use xlink:href="#z" transform="matrix(1,0,0,1,610,387.9657153283412) translate(62.199074074074105 24.488888888888887)"/><use xlink:href="#b" transform="matrix(1,0,0,1,605,430.4657153283412) translate(0 17.1)"/><use xlink:href="#c" transform="matrix(1,0,0,1,705,430.4657153283412) translate(0 17.1)"/><use xlink:href="#g" transform="matrix(1,0,0,1,605,462.4657153283412) translate(0 17.1)"/><use xlink:href="#n" transform="matrix(1,0,0,1,705,462.4657153283412) translate(0 17.1)"/><use xlink:href="#o" transform="matrix(1,0,0,1,705,462.4657153283412) translate(23.95 17.1)"/><use xlink:href="#d" transform="matrix(1,0,0,1,605,494.4657153283412) translate(0 17.1)"/><use xlink:href="#v" transform="matrix(1,0,0,1,705,494.4657153283412) translate(0 17.1)"/><path d="M519.68 172H496a6 6 0 0 0-6 6v166a6 6 0 0 1-6 6H64.5a6 6 0 0 0-6 6v82a6 6 0 0 0 6 6h34" stroke="#224c72" stroke-width="2" fill="none"/><path d="M538.05 182l-20-10 20-10" stroke="#224c72" stroke-width="2" fill="#fff" fill-opacity="0"/><path d="M538.05 172h-20" stroke="#224c72" stroke-width="2" fill="#fff"/><path d="M97.5 459v-30M579.68 407.97H526a6 6 0 0 0-6 6V438a6 6 0 0 1-6 6h-72.5" stroke="#224c72" stroke-width="2" fill="none"/><path d="M598.05 417.97l-20-10 20-10" stroke="#224c72" stroke-width="2" fill="#fff" fill-opacity="0"/><path d="M598.05 407.97h-20" stroke="#224c72" stroke-width="2" fill="#fff"/><path d="M442.5 429v30M881.5 443.84h34a6 6 0 0 0 6-6V210.46a6 6 0 0 0-6-6h-15.18M882.5 428.84v30" stroke="#224c72" stroke-width="2" fill="none"/><path d="M881.95 194.46l20 10-20 10" stroke="#224c72" stroke-width="2" fill="#fff" fill-opacity="0"/><path d="M881.95 204.46h20" stroke="#224c72" stroke-width="2" fill="#fff"/><defs><path fill="#1d262b" d="M67-125c0 53 21 87 73 88 37 1 54-22 65-47l45 17C233-25 199 4 140 4 58 4 20-42 15-125 8-235 124-281 211-232c18 10 29 29 36 50l-46 12c-8-25-30-41-62-41-52 0-71 34-72 86" id="A"/><path fill="#1d262b" d="M110-194c64 0 96 36 96 99 0 64-35 99-97 99-61 0-95-36-95-99 0-62 34-99 96-99zm-1 164c35 0 45-28 45-65 0-40-10-65-43-65-34 0-45 26-45 65 0 36 10 65 43 65" id="B"/><path fill="#1d262b" d="M85 4C-2 5 27-109 22-190h50c7 57-23 150 33 157 60-5 35-97 40-157h50l1 190h-47c-2-12 1-28-3-38-12 25-28 42-61 42" id="C"/><path fill="#1d262b" d="M135-150c-39-12-60 13-60 57V0H25l-1-190h47c2 13-1 29 3 40 6-28 27-53 61-41v41" id="D"/><path fill="#1d262b" d="M137-138c1-29-70-34-71-4 15 46 118 7 119 86 1 83-164 76-172 9l43-7c4 19 20 25 44 25 33 8 57-30 24-41C81-84 22-81 20-136c-2-80 154-74 161-7" id="E"/><path fill="#1d262b" d="M185-48c-13 30-37 53-82 52C43 2 14-33 14-96s30-98 90-98c62 0 83 45 84 108H66c0 31 8 55 39 56 18 0 30-7 34-22zm-45-69c5-46-57-63-70-21-2 6-4 13-4 21h74" id="F"/><g id="a"><use transform="matrix(0.06234567901234567,0,0,0.06234567901234567,0,0)" xlink:href="#A"/><use transform="matrix(0.06234567901234567,0,0,0.06234567901234567,16.147530864197527,0)" xlink:href="#B"/><use transform="matrix(0.06234567901234567,0,0,0.06234567901234567,29.80123456790123,0)" xlink:href="#C"/><use transform="matrix(0.06234567901234567,0,0,0.06234567901234567,43.45493827160493,0)" xlink:href="#D"/><use transform="matrix(0.06234567901234567,0,0,0.06234567901234567,52.18333333333332,0)" xlink:href="#E"/><use transform="matrix(0.06234567901234567,0,0,0.06234567901234567,64.65246913580245,0)" xlink:href="#F"/></g><path fill="#1d262b" d="M24-231v-30h32v30H24zM24 0v-190h32V0H24" id="G"/><path fill="#1d262b" d="M85-194c31 0 48 13 60 33l-1-100h32l1 261h-30c-2-10 0-23-3-31C134-8 116 4 85 4 32 4 16-35 15-94c0-66 23-100 70-100zm9 24c-40 0-46 34-46 75 0 40 6 74 45 74 42 0 51-32 51-76 0-42-9-74-50-73" id="H"/><g id="b"><use transform="matrix(0.05,0,0,0.05,0,0)" xlink:href="#G"/><use transform="matrix(0.05,0,0,0.05,3.95,0)" xlink:href="#H"/></g><path fill="#1d262b" d="M117-194c89-4 53 116 60 194h-32v-121c0-31-8-49-39-48C34-167 62-67 57 0H25l-1-190h30c1 10-1 24 2 32 11-22 29-35 61-36" id="I"/><path fill="#1d262b" d="M59-47c-2 24 18 29 38 22v24C64 9 27 4 27-40v-127H5v-23h24l9-43h21v43h35v23H59v120" id="J"/><g id="c"><use transform="matrix(0.05,0,0,0.05,0,0)" xlink:href="#G"/><use transform="matrix(0.05,0,0,0.05,3.95,0)" xlink:href="#I"/><use transform="matrix(0.05,0,0,0.05,13.949999999999998,0)" xlink:href="#J"/></g><path fill="#1d262b" d="M141-36C126-15 110 5 73 4 37 3 15-17 15-53c-1-64 63-63 125-63 3-35-9-54-41-54-24 1-41 7-42 31l-33-3c5-37 33-52 76-52 45 0 72 20 72 64v82c-1 20 7 32 28 27v20c-31 9-61-2-59-35zM48-53c0 20 12 33 32 33 41-3 63-29 60-74-43 2-92-5-92 41" id="K"/><path fill="#1d262b" d="M210-169c-67 3-38 105-44 169h-31v-121c0-29-5-50-35-48C34-165 62-65 56 0H25l-1-190h30c1 10-1 24 2 32 10-44 99-50 107 0 11-21 27-35 58-36 85-2 47 119 55 194h-31v-121c0-29-5-49-35-48" id="L"/><path fill="#1d262b" d="M100-194c63 0 86 42 84 106H49c0 40 14 67 53 68 26 1 43-12 49-29l28 8c-11 28-37 45-77 45C44 4 14-33 15-96c1-61 26-98 85-98zm52 81c6-60-76-77-97-28-3 7-6 17-6 28h103" id="M"/><g id="d"><use transform="matrix(0.05,0,0,0.05,0,0)" xlink:href="#I"/><use transform="matrix(0.05,0,0,0.05,10,0)" xlink:href="#K"/><use transform="matrix(0.05,0,0,0.05,20,0)" xlink:href="#L"/><use transform="matrix(0.05,0,0,0.05,34.95,0)" xlink:href="#M"/></g><path fill="#1d262b" d="M108 0H70L1-190h34L89-25l56-165h34" id="N"/><path fill="#1d262b" d="M114-163C36-179 61-72 57 0H25l-1-190h30c1 12-1 29 2 39 6-27 23-49 58-41v29" id="O"/><path fill="#1d262b" d="M96-169c-40 0-48 33-48 73s9 75 48 75c24 0 41-14 43-38l32 2c-6 37-31 61-74 61-59 0-76-41-82-99-10-93 101-131 147-64 4 7 5 14 7 22l-32 3c-4-21-16-35-41-35" id="P"/><path fill="#1d262b" d="M106-169C34-169 62-67 57 0H25v-261h32l-1 103c12-21 28-36 61-36 89 0 53 116 60 194h-32v-121c2-32-8-49-39-48" id="Q"/><path fill="#1d262b" d="M87 75C49 33 22-17 22-94c0-76 28-126 65-167h31c-38 41-64 92-64 168S80 34 118 75H87" id="R"/><path fill="#1d262b" d="M101-251c82-7 93 87 43 132L82-64C71-53 59-42 53-27h129V0H18c2-99 128-94 128-182 0-28-16-43-45-43s-46 15-49 41l-32-3c6-41 34-60 81-64" id="S"/><path fill="#1d262b" d="M54-142c48-35 137-8 131 61C196 18 31 33 14-55l32-4c7 23 22 37 52 37 35-1 51-22 54-58 4-55-73-65-99-34H22l8-134h141v27H59" id="T"/><path fill="#1d262b" d="M33-261c38 41 65 92 65 168S71 34 33 75H2C39 34 66-17 66-93S39-220 2-261h31" id="U"/><g id="e"><use transform="matrix(0.05,0,0,0.05,0,0)" xlink:href="#N"/><use transform="matrix(0.05,0,0,0.05,9,0)" xlink:href="#K"/><use transform="matrix(0.05,0,0,0.05,19,0)" xlink:href="#O"/><use transform="matrix(0.05,0,0,0.05,24.95,0)" xlink:href="#P"/><use transform="matrix(0.05,0,0,0.05,33.95,0)" xlink:href="#Q"/><use transform="matrix(0.05,0,0,0.05,43.95,0)" xlink:href="#K"/><use transform="matrix(0.05,0,0,0.05,53.95,0)" xlink:href="#O"/><use transform="matrix(0.05,0,0,0.05,59.900000000000006,0)" xlink:href="#R"/><use transform="matrix(0.05,0,0,0.05,65.85000000000001,0)" xlink:href="#S"/><use transform="matrix(0.05,0,0,0.05,75.85000000000001,0)" xlink:href="#T"/><use transform="matrix(0.05,0,0,0.05,85.85000000000001,0)" xlink:href="#T"/><use transform="matrix(0.05,0,0,0.05,95.85000000000001,0)" xlink:href="#U"/></g><path fill="#1d262b" d="M-5 72V49h209v23H-5" id="V"/><path fill="#1d262b" d="M84 4C-5 8 30-112 23-190h32v120c0 31 7 50 39 49 72-2 45-101 50-169h31l1 190h-30c-1-10 1-25-2-33-11 22-28 36-60 37" id="W"/><path fill="#1d262b" d="M135-143c-3-34-86-38-87 0 15 53 115 12 119 90S17 21 10-45l28-5c4 36 97 45 98 0-10-56-113-15-118-90-4-57 82-63 122-42 12 7 21 19 24 35" id="X"/><g id="f"><use transform="matrix(0.05,0,0,0.05,0,0)" xlink:href="#G"/><use transform="matrix(0.05,0,0,0.05,3.95,0)" xlink:href="#H"/><use transform="matrix(0.05,0,0,0.05,13.949999999999998,0)" xlink:href="#V"/><use transform="matrix(0.05,0,0,0.05,23.95,0)" xlink:href="#W"/><use transform="matrix(0.05,0,0,0.05,33.95,0)" xlink:href="#X"/><use transform="matrix(0.05,0,0,0.05,42.95,0)" xlink:href="#M"/><use transform="matrix(0.05,0,0,0.05,52.95,0)" xlink:href="#O"/></g><path fill="#1d262b" d="M177-190C167-65 218 103 67 71c-23-6-38-20-44-43l32-5c15 47 100 32 89-28v-30C133-14 115 1 83 1 29 1 15-40 15-95c0-56 16-97 71-98 29-1 48 16 59 35 1-10 0-23 2-32h30zM94-22c36 0 50-32 50-73 0-42-14-75-50-75-39 0-46 34-46 75s6 73 46 73" id="Y"/><path fill="#1d262b" d="M100-194c62-1 85 37 85 99 1 63-27 99-86 99S16-35 15-95c0-66 28-99 85-99zM99-20c44 1 53-31 53-75 0-43-8-75-51-75s-53 32-53 75 10 74 51 75" id="Z"/><path fill="#1d262b" d="M179-190L93 31C79 59 56 82 12 73V49c39 6 53-20 64-50L1-190h34L92-34l54-156h33" id="aa"/><g id="g"><use transform="matrix(0.05,0,0,0.05,0,0)" xlink:href="#G"/><use transform="matrix(0.05,0,0,0.05,3.95,0)" xlink:href="#H"/><use transform="matrix(0.05,0,0,0.05,13.949999999999998,0)" xlink:href="#V"/><use transform="matrix(0.05,0,0,0.05,23.95,0)" xlink:href="#P"/><use transform="matrix(0.05,0,0,0.05,32.95,0)" xlink:href="#K"/><use transform="matrix(0.05,0,0,0.05,42.95,0)" xlink:href="#J"/><use transform="matrix(0.05,0,0,0.05,47.95,0)" xlink:href="#M"/><use transform="matrix(0.05,0,0,0.05,57.95,0)" xlink:href="#Y"/><use transform="matrix(0.05,0,0,0.05,67.95,0)" xlink:href="#Z"/><use transform="matrix(0.05,0,0,0.05,77.95,0)" xlink:href="#O"/><use transform="matrix(0.05,0,0,0.05,83.9,0)" xlink:href="#aa"/></g><path fill="#1d262b" d="M115-194c53 0 69 39 70 98 0 66-23 100-70 100C84 3 66-7 56-30L54 0H23l1-261h32v101c10-23 28-34 59-34zm-8 174c40 0 45-34 45-75 0-40-5-75-45-74-42 0-51 32-51 76 0 43 10 73 51 73" id="ab"/><g id="h"><use transform="matrix(0.05,0,0,0.05,0,0)" xlink:href="#G"/><use transform="matrix(0.05,0,0,0.05,3.95,0)" xlink:href="#H"/><use transform="matrix(0.05,0,0,0.05,13.949999999999998,0)" xlink:href="#V"/><use transform="matrix(0.05,0,0,0.05,23.95,0)" xlink:href="#X"/><use transform="matrix(0.05,0,0,0.05,32.95,0)" xlink:href="#W"/><use transform="matrix(0.05,0,0,0.05,42.95,0)" xlink:href="#ab"/><use transform="matrix(0.05,0,0,0.05,52.95,0)" xlink:href="#P"/><use transform="matrix(0.05,0,0,0.05,61.95,0)" xlink:href="#K"/><use transform="matrix(0.05,0,0,0.05,71.95,0)" xlink:href="#J"/><use transform="matrix(0.05,0,0,0.05,76.95,0)" xlink:href="#M"/><use transform="matrix(0.05,0,0,0.05,86.95,0)" xlink:href="#Y"/><use transform="matrix(0.05,0,0,0.05,96.95,0)" xlink:href="#Z"/><use transform="matrix(0.05,0,0,0.05,106.95,0)" xlink:href="#O"/><use transform="matrix(0.05,0,0,0.05,112.9,0)" xlink:href="#aa"/></g><path fill="#1d262b" d="M115-194c55 1 70 41 70 98S169 2 115 4C84 4 66-9 55-30l1 105H24l-1-265h31l2 30c10-21 28-34 59-34zm-8 174c40 0 45-34 45-75s-6-73-45-74c-42 0-51 32-51 76 0 43 10 73 51 73" id="ac"/><g id="i"><use transform="matrix(0.05,0,0,0.05,0,0)" xlink:href="#H"/><use transform="matrix(0.05,0,0,0.05,10,0)" xlink:href="#M"/><use transform="matrix(0.05,0,0,0.05,20,0)" xlink:href="#X"/><use transform="matrix(0.05,0,0,0.05,29,0)" xlink:href="#P"/><use transform="matrix(0.05,0,0,0.05,38,0)" xlink:href="#O"/><use transform="matrix(0.05,0,0,0.05,43.95,0)" xlink:href="#G"/><use transform="matrix(0.05,0,0,0.05,47.900000000000006,0)" xlink:href="#ac"/><use transform="matrix(0.05,0,0,0.05,57.900000000000006,0)" xlink:href="#J"/><use transform="matrix(0.05,0,0,0.05,62.900000000000006,0)" xlink:href="#G"/><use transform="matrix(0.05,0,0,0.05,66.85000000000001,0)" xlink:href="#Z"/><use transform="matrix(0.05,0,0,0.05,76.85000000000001,0)" xlink:href="#I"/></g><g id="j"><use transform="matrix(0.05,0,0,0.05,0,0)" xlink:href="#ac"/><use transform="matrix(0.05,0,0,0.05,10,0)" xlink:href="#O"/><use transform="matrix(0.05,0,0,0.05,15.949999999999998,0)" xlink:href="#G"/><use transform="matrix(0.05,0,0,0.05,19.9,0)" xlink:href="#P"/><use transform="matrix(0.05,0,0,0.05,28.899999999999995,0)" xlink:href="#M"/></g><path fill="#1d262b" d="M24 0v-261h32V0H24" id="ad"/><path fill="#1d262b" d="M155-56V0h-30v-56H8v-25l114-167h33v167h35v25h-35zm-30-156c-27 46-58 90-88 131h88v-131" id="ae"/><path fill="#1d262b" d="M68-38c1 34 0 65-14 84H32c9-13 17-26 17-46H33v-38h35" id="af"/><g id="k"><use transform="matrix(0.05,0,0,0.05,0,0)" xlink:href="#H"/><use transform="matrix(0.05,0,0,0.05,10,0)" xlink:href="#M"/><use transform="matrix(0.05,0,0,0.05,20,0)" xlink:href="#P"/><use transform="matrix(0.05,0,0,0.05,29,0)" xlink:href="#G"/><use transform="matrix(0.05,0,0,0.05,32.95,0)" xlink:href="#L"/><use transform="matrix(0.05,0,0,0.05,47.900000000000006,0)" xlink:href="#K"/><use transform="matrix(0.05,0,0,0.05,57.900000000000006,0)" xlink:href="#ad"/><use transform="matrix(0.05,0,0,0.05,61.85,0)" xlink:href="#R"/><use transform="matrix(0.05,0,0,0.05,67.80000000000001,0)" xlink:href="#ae"/><use transform="matrix(0.05,0,0,0.05,77.80000000000001,0)" xlink:href="#af"/><use transform="matrix(0.05,0,0,0.05,82.80000000000001,0)" xlink:href="#S"/><use transform="matrix(0.05,0,0,0.05,92.80000000000001,0)" xlink:href="#U"/></g><path fill="#1d262b" d="M24 0v-248h52v208h133V0H24" id="ag"/><path fill="#1d262b" d="M135-194c87-1 58 113 63 194h-50c-7-57 23-157-34-157-59 0-34 97-39 157H25l-1-190h47c2 12-1 28 3 38 12-26 28-41 61-42" id="ah"/><g id="l"><use transform="matrix(0.06234567901234567,0,0,0.06234567901234567,0,0)" xlink:href="#ag"/><use transform="matrix(0.06234567901234567,0,0,0.06234567901234567,13.653703703703702,0)" xlink:href="#F"/><use transform="matrix(0.06234567901234567,0,0,0.06234567901234567,26.122839506172834,0)" xlink:href="#E"/><use transform="matrix(0.06234567901234567,0,0,0.06234567901234567,38.59197530864196,0)" xlink:href="#E"/><use transform="matrix(0.06234567901234567,0,0,0.06234567901234567,51.061111111111096,0)" xlink:href="#B"/><use transform="matrix(0.06234567901234567,0,0,0.06234567901234567,64.7148148148148,0)" xlink:href="#ah"/></g><g id="m"><use transform="matrix(0.05,0,0,0.05,0,0)" xlink:href="#G"/><use transform="matrix(0.05,0,0,0.05,3.95,0)" xlink:href="#H"/><use transform="matrix(0.05,0,0,0.05,13.949999999999998,0)" xlink:href="#V"/><use transform="matrix(0.05,0,0,0.05,23.95,0)" xlink:href="#P"/><use transform="matrix(0.05,0,0,0.05,32.95,0)" xlink:href="#Z"/><use transform="matrix(0.05,0,0,0.05,42.95,0)" xlink:href="#W"/><use transform="matrix(0.05,0,0,0.05,52.95,0)" xlink:href="#O"/><use transform="matrix(0.05,0,0,0.05,58.900000000000006,0)" xlink:href="#X"/><use transform="matrix(0.05,0,0,0.05,67.9,0)" xlink:href="#M"/></g><g id="n"><use transform="matrix(0.05,0,0,0.05,0,0)" xlink:href="#G"/><use transform="matrix(0.05,0,0,0.05,3.95,0)" xlink:href="#I"/><use transform="matrix(0.05,0,0,0.05,13.949999999999998,0)" xlink:href="#J"/></g><path fill="#1d262b" d="M101-234c-31-9-42 10-38 44h38v23H63V0H32v-167H5v-23h27c-7-52 17-82 69-68v24" id="ai"/><path fill="#1d262b" d="M143 0L79-87 56-68V0H24v-261h32v163l83-92h37l-77 82L181 0h-38" id="aj"/><g id="o"><use transform="matrix(0.05,0,0,0.05,0,0)" xlink:href="#R"/><use transform="matrix(0.05,0,0,0.05,5.95,0)" xlink:href="#ai"/><use transform="matrix(0.05,0,0,0.05,10.95,0)" xlink:href="#aj"/><use transform="matrix(0.05,0,0,0.05,19.95,0)" xlink:href="#U"/></g><g id="p"><use transform="matrix(0.05,0,0,0.05,0,0)" xlink:href="#Z"/><use transform="matrix(0.05,0,0,0.05,10,0)" xlink:href="#O"/><use transform="matrix(0.05,0,0,0.05,15.949999999999998,0)" xlink:href="#H"/><use transform="matrix(0.05,0,0,0.05,25.950000000000003,0)" xlink:href="#M"/><use transform="matrix(0.05,0,0,0.05,35.95,0)" xlink:href="#O"/><use transform="matrix(0.05,0,0,0.05,41.900000000000006,0)" xlink:href="#V"/><use transform="matrix(0.05,0,0,0.05,51.900000000000006,0)" xlink:href="#I"/><use transform="matrix(0.05,0,0,0.05,61.900000000000006,0)" xlink:href="#W"/><use transform="matrix(0.05,0,0,0.05,71.9,0)" xlink:href="#L"/><use transform="matrix(0.05,0,0,0.05,86.85000000000001,0)" xlink:href="#ab"/><use transform="matrix(0.05,0,0,0.05,96.85000000000001,0)" xlink:href="#M"/><use transform="matrix(0.05,0,0,0.05,106.85000000000001,0)" xlink:href="#O"/></g><g id="q"><use transform="matrix(0.05,0,0,0.05,0,0)" xlink:href="#ai"/><use transform="matrix(0.05,0,0,0.05,5,0)" xlink:href="#G"/><use transform="matrix(0.05,0,0,0.05,8.95,0)" xlink:href="#ad"/><use transform="matrix(0.05,0,0,0.05,12.899999999999999,0)" xlink:href="#M"/></g><path fill="#1d262b" d="M141 0L90-78 38 0H4l68-98-65-92h35l48 74 47-74h35l-64 92 68 98h-35" id="ak"/><g id="r"><use transform="matrix(0.05,0,0,0.05,0,0)" xlink:href="#N"/><use transform="matrix(0.05,0,0,0.05,9,0)" xlink:href="#K"/><use transform="matrix(0.05,0,0,0.05,19,0)" xlink:href="#O"/><use transform="matrix(0.05,0,0,0.05,24.95,0)" xlink:href="#ab"/><use transform="matrix(0.05,0,0,0.05,34.95,0)" xlink:href="#G"/><use transform="matrix(0.05,0,0,0.05,38.900000000000006,0)" xlink:href="#I"/><use transform="matrix(0.05,0,0,0.05,48.900000000000006,0)" xlink:href="#K"/><use transform="matrix(0.05,0,0,0.05,58.900000000000006,0)" xlink:href="#O"/><use transform="matrix(0.05,0,0,0.05,64.85000000000001,0)" xlink:href="#aa"/><use transform="matrix(0.05,0,0,0.05,73.85000000000001,0)" xlink:href="#R"/><use transform="matrix(0.05,0,0,0.05,79.80000000000001,0)" xlink:href="#L"/><use transform="matrix(0.05,0,0,0.05,94.75000000000001,0)" xlink:href="#K"/><use transform="matrix(0.05,0,0,0.05,104.75,0)" xlink:href="#ak"/><use transform="matrix(0.05,0,0,0.05,113.75,0)" xlink:href="#U"/></g><g id="s"><use transform="matrix(0.05,0,0,0.05,0,0)" xlink:href="#ai"/><use transform="matrix(0.05,0,0,0.05,5,0)" xlink:href="#G"/><use transform="matrix(0.05,0,0,0.05,8.95,0)" xlink:href="#ad"/><use transform="matrix(0.05,0,0,0.05,12.899999999999999,0)" xlink:href="#M"/><use transform="matrix(0.05,0,0,0.05,22.9,0)" xlink:href="#V"/><use transform="matrix(0.05,0,0,0.05,32.9,0)" xlink:href="#N"/><use transform="matrix(0.05,0,0,0.05,41.9,0)" xlink:href="#G"/><use transform="matrix(0.05,0,0,0.05,45.85,0)" xlink:href="#H"/><use transform="matrix(0.05,0,0,0.05,55.85,0)" xlink:href="#M"/><use transform="matrix(0.05,0,0,0.05,65.85,0)" xlink:href="#Z"/></g><path fill="#1d262b" d="M238-95c0 69-44 99-111 99C63 4 22-25 22-93v-155h51v151c-1 38 19 59 55 60 90 1 49-130 58-211h52v153" id="al"/><g id="t"><use transform="matrix(0.06234567901234567,0,0,0.06234567901234567,0,0)" xlink:href="#al"/><use transform="matrix(0.06234567901234567,0,0,0.06234567901234567,16.147530864197527,0)" xlink:href="#E"/><use transform="matrix(0.06234567901234567,0,0,0.06234567901234567,28.61666666666666,0)" xlink:href="#F"/><use transform="matrix(0.06234567901234567,0,0,0.06234567901234567,41.08580246913579,0)" xlink:href="#D"/></g><g id="u"><use transform="matrix(0.05,0,0,0.05,0,0)" xlink:href="#M"/><use transform="matrix(0.05,0,0,0.05,10,0)" xlink:href="#L"/><use transform="matrix(0.05,0,0,0.05,24.950000000000003,0)" xlink:href="#K"/><use transform="matrix(0.05,0,0,0.05,34.95,0)" xlink:href="#G"/><use transform="matrix(0.05,0,0,0.05,38.900000000000006,0)" xlink:href="#ad"/></g><path fill="#1d262b" d="M127-220V0H93v-220H8v-28h204v28h-85" id="am"/><g id="v"><use transform="matrix(0.05,0,0,0.05,0,0)" xlink:href="#am"/><use transform="matrix(0.05,0,0,0.05,10.3,0)" xlink:href="#G"/><use transform="matrix(0.05,0,0,0.05,14.25,0)" xlink:href="#ac"/><use transform="matrix(0.05,0,0,0.05,24.25,0)" xlink:href="#Z"/></g><g id="w"><use transform="matrix(0.05,0,0,0.05,0,0)" xlink:href="#ac"/><use transform="matrix(0.05,0,0,0.05,10,0)" xlink:href="#Q"/><use transform="matrix(0.05,0,0,0.05,20,0)" xlink:href="#Z"/><use transform="matrix(0.05,0,0,0.05,30,0)" xlink:href="#I"/><use transform="matrix(0.05,0,0,0.05,40,0)" xlink:href="#M"/></g><path fill="#1d262b" d="M101-251c68 0 85 55 85 127S166 4 100 4C33 4 14-52 14-124c0-73 17-127 87-127zm-1 229c47 0 54-49 54-102s-4-102-53-102c-51 0-55 48-55 102 0 53 5 102 54 102" id="an"/><g id="x"><use transform="matrix(0.05,0,0,0.05,0,0)" xlink:href="#N"/><use transform="matrix(0.05,0,0,0.05,9,0)" xlink:href="#K"/><use transform="matrix(0.05,0,0,0.05,19,0)" xlink:href="#O"/><use transform="matrix(0.05,0,0,0.05,24.95,0)" xlink:href="#P"/><use transform="matrix(0.05,0,0,0.05,33.95,0)" xlink:href="#Q"/><use transform="matrix(0.05,0,0,0.05,43.95,0)" xlink:href="#K"/><use transform="matrix(0.05,0,0,0.05,53.95,0)" xlink:href="#O"/><use transform="matrix(0.05,0,0,0.05,59.900000000000006,0)" xlink:href="#R"/><use transform="matrix(0.05,0,0,0.05,65.85000000000001,0)" xlink:href="#S"/><use transform="matrix(0.05,0,0,0.05,75.85000000000001,0)" xlink:href="#an"/><use transform="matrix(0.05,0,0,0.05,85.85000000000001,0)" xlink:href="#U"/></g><path fill="#1d262b" d="M133-34C117-15 103 5 69 4 32 3 11-16 11-54c-1-60 55-63 116-61 1-26-3-47-28-47-18 1-26 9-28 27l-52-2c7-38 36-58 82-57s74 22 75 68l1 82c-1 14 12 18 25 15v27c-30 8-71 5-69-32zm-48 3c29 0 43-24 42-57-32 0-66-3-65 30 0 17 8 27 23 27" id="ao"/><path fill="#1d262b" d="M115-3C79 11 28 4 28-45v-112H4v-33h27l15-45h31v45h36v33H77v99c-1 23 16 31 38 25v30" id="ap"/><path fill="#1d262b" d="M195-6C206 82 75 100 31 46c-4-6-6-13-8-21l49-6c3 16 16 24 34 25 40 0 42-37 40-79-11 22-30 35-61 35-53 0-70-43-70-97 0-56 18-96 73-97 30 0 46 14 59 34l2-30h47zm-90-29c32 0 41-27 41-63 0-35-9-62-40-62-32 0-39 29-40 63 0 36 9 62 39 62" id="aq"/><path fill="#1d262b" d="M123 10C108 53 80 86 19 72V37c35 8 53-11 59-39L3-190h52l48 148c12-52 28-100 44-148h51" id="ar"/><g id="y"><use transform="matrix(0.06234567901234567,0,0,0.06234567901234567,0,0)" xlink:href="#A"/><use transform="matrix(0.06234567901234567,0,0,0.06234567901234567,16.147530864197527,0)" xlink:href="#ao"/><use transform="matrix(0.06234567901234567,0,0,0.06234567901234567,28.61666666666666,0)" xlink:href="#ap"/><use transform="matrix(0.06234567901234567,0,0,0.06234567901234567,36.035802469135795,0)" xlink:href="#F"/><use transform="matrix(0.06234567901234567,0,0,0.06234567901234567,48.50493827160493,0)" xlink:href="#aq"/><use transform="matrix(0.06234567901234567,0,0,0.06234567901234567,62.158641975308626,0)" xlink:href="#B"/><use transform="matrix(0.06234567901234567,0,0,0.06234567901234567,75.81234567901232,0)" xlink:href="#D"/><use transform="matrix(0.06234567901234567,0,0,0.06234567901234567,84.54074074074072,0)" xlink:href="#ar"/></g><path fill="#1d262b" d="M169-182c-1-43-94-46-97-3 18 66 151 10 154 114 3 95-165 93-204 36-6-8-10-19-12-30l50-8c3 46 112 56 116 5-17-69-150-10-154-114-4-87 153-88 188-35 5 8 8 18 10 28" id="as"/><path fill="#1d262b" d="M135-194c52 0 70 43 70 98 0 56-19 99-73 100-30 1-46-15-58-35L72 0H24l1-261h50v104c11-23 29-37 60-37zM114-30c31 0 40-27 40-66 0-37-7-63-39-63s-41 28-41 65c0 36 8 64 40 64" id="at"/><path fill="#1d262b" d="M190-63c-7 42-38 67-86 67-59 0-84-38-90-98-12-110 154-137 174-36l-49 2c-2-19-15-32-35-32-30 0-35 28-38 64-6 74 65 87 74 30" id="au"/><g id="z"><use transform="matrix(0.06234567901234567,0,0,0.06234567901234567,0,0)" xlink:href="#as"/><use transform="matrix(0.06234567901234567,0,0,0.06234567901234567,14.96296296296296,0)" xlink:href="#C"/><use transform="matrix(0.06234567901234567,0,0,0.06234567901234567,28.61666666666666,0)" xlink:href="#at"/><use transform="matrix(0.06234567901234567,0,0,0.06234567901234567,42.27037037037036,0)" xlink:href="#au"/><use transform="matrix(0.06234567901234567,0,0,0.06234567901234567,54.73950617283949,0)" xlink:href="#ao"/><use transform="matrix(0.06234567901234567,0,0,0.06234567901234567,67.20864197530862,0)" xlink:href="#ap"/><use transform="matrix(0.06234567901234567,0,0,0.06234567901234567,74.62777777777775,0)" xlink:href="#F"/><use transform="matrix(0.06234567901234567,0,0,0.06234567901234567,87.09691358024688,0)" xlink:href="#aq"/><use transform="matrix(0.06234567901234567,0,0,0.06234567901234567,100.75061728395058,0)" xlink:href="#B"/><use transform="matrix(0.06234567901234567,0,0,0.06234567901234567,114.40432098765427,0)" xlink:href="#D"/><use transform="matrix(0.06234567901234567,0,0,0.06234567901234567,123.13271604938267,0)" xlink:href="#ar"/></g></defs></g></svg>