<svg xmlns="http://www.w3.org/2000/svg" xmlns:xlink="http://www.w3.org/1999/xlink" xmlns:lucid="lucid" width="2281" height="1365.8"><g transform="translate(-239 -20)" lucid:page-tab-id="0_0"><path d="M0 0h2944.33v1853.18H0z" fill="#fff"/><path d="M1200 46a6 6 0 0 1 6-6h188a6 6 0 0 1 6 6v88a6 6 0 0 1-6 6h-188a6 6 0 0 1-6-6z" stroke="#4881b3" stroke-width="3" fill="#f5fbff"/><use xlink:href="#a" transform="matrix(1,0,0,1,1212,52) translate(66 41.6)"/><path d="M1200 606a6 6 0 0 1 6-6h188a6 6 0 0 1 6 6v88a6 6 0 0 1-6 6h-188a6 6 0 0 1-6-6z" stroke="#4881b3" stroke-width="3" fill="#f5fbff"/><use xlink:href="#b" transform="matrix(1,0,0,1,1212,612) translate(30.099999999999994 41.6)"/><path d="M1294.63 202.68a12 12 0 0 1 10.74 0l89.26 44.64a3 3 0 0 1 0 5.36l-89.26 44.64a12 12 0 0 1-10.74 0l-89.26-44.64a3 3 0 0 1 0-5.36z" stroke="#4881b3" stroke-width="3" fill="#f5fbff"/><use xlink:href="#c" transform="matrix(1,0,0,1,1205,205) translate(35.55 48.6)"/><use xlink:href="#d" transform="matrix(1,0,0,1,1205,205) translate(90.5 48.6)"/><use xlink:href="#e" transform="matrix(1,0,0,1,1205,205) translate(105.5 48.6)"/><path d="M1300 142.5v38.9" stroke="#224c72" stroke-width="2" fill="none"/><path d="M1301 142.53h-2v-1.03h2z" stroke="#224c72" stroke-width=".05" fill="#224c72"/><path d="M1300 196.68l-4.63-14.27h9.27z" stroke="#224c72" stroke-width="2" fill="#224c72"/><path d="M700 406a6 6 0 0 1 6-6h188a6 6 0 0 1 6 6v88a6 6 0 0 1-6 6H706a6 6 0 0 1-6-6z" stroke="#4881b3" stroke-width="3" fill="#f5fbff"/><use xlink:href="#f" transform="matrix(1,0,0,1,712,412) translate(30.574999999999996 41.6)"/><path d="M1900 606a6 6 0 0 1 6-6h188a6 6 0 0 1 6 6v88a6 6 0 0 1-6 6h-188a6 6 0 0 1-6-6z" stroke="#4881b3" stroke-width="3" fill="#f5fbff"/><use xlink:href="#g" transform="matrix(1,0,0,1,1912,612) translate(43.05 41.6)"/><path d="M1300 301.08v42.2a6 6 0 0 1-6 6H806a6 6 0 0 0-6 6V380" stroke="#224c72" stroke-width="2" fill="none"/><path d="M1300 300.08l1-.04v1.07h-2v-1.06z" stroke="#224c72" stroke-width=".05" fill="#224c72"/><path d="M800 395.26L795.37 381h9.26z" stroke="#224c72" stroke-width="2" fill="#224c72"/><use xlink:href="#h" transform="matrix(1,0,0,1,1163.591516599907,323.69262287943786) translate(0.004999999999999005 14.4)"/><path d="M1300 301.08V344a6 6 0 0 0 6 6h488a6 6 0 0 1 6 6v25.4" stroke="#224c72" stroke-width="2" fill="none"/><path d="M1300 300.08l1-.04v1.07h-2v-1.06z" stroke="#224c72" stroke-width=".05" fill="#224c72"/><path d="M1800 396.68l-4.63-14.27h9.27z" stroke="#224c72" stroke-width="2" fill="#224c72"/><use xlink:href="#h" transform="matrix(1,0,0,1,1394.6423425470487,324.40000000000003) translate(0.004999999999999005 14.4)"/><path d="M1794.63 402.68a12 12 0 0 1 10.74 0l89.26 44.64a3 3 0 0 1 0 5.36l-89.26 44.64a12 12 0 0 1-10.74 0l-89.26-44.64a3 3 0 0 1 0-5.36z" stroke="#4881b3" stroke-width="3" fill="#f5fbff"/><use xlink:href="#i" transform="matrix(1,0,0,1,1705,405) translate(31.599999999999994 48.6)"/><use xlink:href="#j" transform="matrix(1,0,0,1,1705,405) translate(45.55 48.6)"/><use xlink:href="#k" transform="matrix(1,0,0,1,1705,405) translate(85.5 48.6)"/><use xlink:href="#l" transform="matrix(1,0,0,1,1705,405) translate(144.45 48.6)"/><path d="M1800 501.08v42.2a6 6 0 0 0 6 6h188a6 6 0 0 1 6 6V580" stroke="#224c72" stroke-width="2" fill="none"/><path d="M1800 500.08l1-.04v1.07h-2v-1.06z" stroke="#224c72" stroke-width=".05" fill="#224c72"/><path d="M2000 595.26l-4.63-14.26h9.27z" stroke="#224c72" stroke-width="2" fill="#224c72"/><use xlink:href="#m" transform="matrix(1,0,0,1,1855.6654036266011,523.692622879438) translate(0.004999999999999005 14.4)"/><path d="M1800 501.08V544a6 6 0 0 1-6 6h-488a6 6 0 0 0-6 6v24" stroke="#224c72" stroke-width="2" fill="none"/><path d="M1800 500.08l1-.04v1.07h-2v-1.06z" stroke="#224c72" stroke-width=".05" fill="#224c72"/><path d="M1300 595.26l-4.63-14.26h9.27z" stroke="#224c72" stroke-width="2" fill="#224c72"/><use xlink:href="#n" transform="matrix(1,0,0,1,1629.0256730608098,524.4000000000001) translate(0.004999999999999005 14.4)"/><path d="M794.63 602.68a12 12 0 0 1 10.74 0l89.26 44.64a3 3 0 0 1 0 5.36l-89.26 44.64a12 12 0 0 1-10.74 0l-89.26-44.64a3 3 0 0 1 0-5.36z" stroke="#4881b3" stroke-width="3" fill="#f5fbff"/><use xlink:href="#i" transform="matrix(1,0,0,1,705,605) translate(31.599999999999994 48.6)"/><use xlink:href="#j" transform="matrix(1,0,0,1,705,605) translate(45.55 48.6)"/><use xlink:href="#k" transform="matrix(1,0,0,1,705,605) translate(85.5 48.6)"/><use xlink:href="#l" transform="matrix(1,0,0,1,705,605) translate(144.45 48.6)"/><path d="M800 502.5v78.9" stroke="#224c72" stroke-width="2" fill="none"/><path d="M801 502.53h-2v-1.03h2z" stroke="#224c72" stroke-width=".05" fill="#224c72"/><path d="M800 596.68l-4.63-14.27h9.26z" stroke="#224c72" stroke-width="2" fill="#224c72"/><use xlink:href="#c" transform="matrix(1,0,0,1,808,520.6569383016196) translate(0.005000000000002558 14.4)"/><use xlink:href="#o" transform="matrix(1,0,0,1,808,520.6569383016196) translate(54.955000000000005 14.4)"/><path d="M800 701.1V744a6 6 0 0 0 6 6h488a6 6 0 0 0 6-6v-24" stroke="#224c72" stroke-width="2" fill="none"/><path d="M800 700.1l1-.06v1.07h-2v-1.06z" stroke="#224c72" stroke-width=".05" fill="#224c72"/><path d="M1300 704.74l4.63 14.26h-9.27z" stroke="#224c72" stroke-width="2" fill="#224c72"/><use xlink:href="#n" transform="matrix(1,0,0,1,899.7268730821766,724.4) translate(0.004999999999999005 14.4)"/><path d="M500.5 806a6 6 0 0 1 6-6h188a6 6 0 0 1 6 6v88a6 6 0 0 1-6 6h-188a6 6 0 0 1-6-6z" stroke="#4881b3" stroke-width="3" fill="#f5fbff"/><use xlink:href="#p" transform="matrix(1,0,0,1,512.4999500000002,812) translate(24.074999999999996 41.6)"/><path d="M800 701.1v42.2a6 6 0 0 1-6 6H606.5a6 6 0 0 0-6 6V780" stroke="#224c72" stroke-width="2" fill="none"/><path d="M800 700.1l1-.06v1.07h-2v-1.06z" stroke="#224c72" stroke-width=".05" fill="#224c72"/><path d="M600.5 795.26L595.87 781h9.26z" stroke="#224c72" stroke-width="2" fill="#224c72"/><use xlink:href="#m" transform="matrix(1,0,0,1,689.9315039202606,723.6926228794379) translate(0.004999999999999005 14.4)"/><path d="M700 1206a6 6 0 0 1 6-6h188a6 6 0 0 1 6 6v88a6 6 0 0 1-6 6H706a6 6 0 0 1-6-6z" stroke="#4881b3" stroke-width="3" fill="#f5fbff"/><use xlink:href="#q" transform="matrix(1,0,0,1,712,1212) translate(40.525 41.6)"/><path d="M595.7 1003.6a8 8 0 0 1 9.6 0l70.4 52.8a4.5 4.5 0 0 1 0 7.2l-70.4 52.8a8 8 0 0 1-9.6 0l-70.4-52.8a4.5 4.5 0 0 1 0-7.2z" stroke="#4881b3" stroke-width="3" fill="#f5fbff"/><use xlink:href="#r" transform="matrix(1,0,0,1,525.4999500000004,1005) translate(44.025 47.8)"/><use xlink:href="#s" transform="matrix(1,0,0,1,525.4999500000004,1005) translate(76.975 47.8)"/><use xlink:href="#t" transform="matrix(1,0,0,1,525.4999500000004,1005) translate(26.549999999999997 69.4)"/><path d="M600.5 1120.5v23.5a6 6 0 0 0 6 6H794a6 6 0 0 1 6 6v24" stroke="#224c72" stroke-width="2" fill="none"/><path d="M600.5 1119.5l1-.06v1.1h-2v-1.1z" stroke="#224c72" stroke-width=".05" fill="#224c72"/><path d="M800 1195.26l-4.63-14.26h9.26z" stroke="#224c72" stroke-width="2" fill="#224c72"/><use xlink:href="#m" transform="matrix(1,0,0,1,663.7699533467896,1124.4) translate(0.004999999999999005 14.4)"/><path d="M600.5 902.5V982" stroke="#224c72" stroke-width="2" fill="none"/><path d="M601.5 902.53h-2v-1.03h2z" stroke="#224c72" stroke-width=".05" fill="#224c72"/><path d="M600.5 997.26L595.87 983h9.26z" stroke="#224c72" stroke-width="2" fill="#224c72"/><use xlink:href="#u" transform="matrix(1,0,0,1,608.4999500000004,919.7398120755396) translate(0.005000000000002558 14.4)"/><use xlink:href="#v" transform="matrix(1,0,0,1,608.4999500000004,919.7398120755396) translate(42.955000000000005 14.4)"/><path d="M600.5 1120.5v23.5a6 6 0 0 1-6 6H455.7a6 6 0 0 0-6 6v24" stroke="#224c72" stroke-width="2" fill="none"/><path d="M600.5 1119.5l1-.06v1.1h-2v-1.1z" stroke="#224c72" stroke-width=".05" fill="#224c72"/><path d="M449.7 1195.26l-4.63-14.26h9.27z" stroke="#224c72" stroke-width="2" fill="#224c72"/><use xlink:href="#n" transform="matrix(1,0,0,1,498.7983589022322,1124.4) translate(0.004999999999999005 14.4)"/><path d="M300 1206a6 6 0 0 1 6-6h188a6 6 0 0 1 6 6v90.23a6 6 0 0 1-6 6H306a6 6 0 0 1-6-6z" stroke="#4881b3" stroke-width="3" fill="#f5fbff"/><use xlink:href="#w" transform="matrix(1,0,0,1,312,1212) translate(43.55 43.1)"/><path d="M400 1197.5V456a6 6 0 0 1 6-6h274" stroke="#224c72" stroke-width="2" fill="none"/><path d="M401 1198.5h-2v-1.03h2z" stroke="#224c72" stroke-width=".05" fill="#224c72"/><path d="M695.26 450L681 454.63v-9.26z" stroke="#224c72" stroke-width="2" fill="#224c72"/><use xlink:href="#x" transform="matrix(1,0,0,1,257.15,1142.7766660066702) translate(0.0049999999999954525 14.4)"/><use xlink:href="#y" transform="matrix(1,0,0,1,257.15,1142.7766660066702) translate(60.905 14.4)"/><path d="M400 1304.73V1344a6 6 0 0 0 6 6h388a6 6 0 0 0 6-6v-24" stroke="#224c72" stroke-width="2" fill="none"/><path d="M401 1304.76h-2v-1.03h2z" stroke="#224c72" stroke-width=".05" fill="#224c72"/><path d="M800 1304.74l4.63 14.26h-9.26z" stroke="#224c72" stroke-width="2" fill="#224c72"/><use xlink:href="#z" transform="matrix(1,0,0,1,424.7998996761988,1354) translate(0.0049999999999954525 13.866666666666669)"/><use xlink:href="#A" transform="matrix(1,0,0,1,424.7998996761988,1354) translate(88.54944444444445 13.866666666666669)"/><path d="M400 1304.73V1344a6 6 0 0 1-6 6H256a6 6 0 0 1-6-6v-86.88a6 6 0 0 1 6-6h24" stroke="#224c72" stroke-width="2" fill="none"/><path d="M401 1304.76h-2v-1.03h2z" stroke="#224c72" stroke-width=".05" fill="#224c72"/><path d="M295.26 1251.12l-14.26 4.63v-9.27z" stroke="#224c72" stroke-width="2" fill="#224c72"/><use xlink:href="#B" transform="matrix(1,0,0,1,260.4185314794355,1354) translate(0.005000000000002558 13.866666666666669)"/><use xlink:href="#A" transform="matrix(1,0,0,1,260.4185314794355,1354) translate(51.86055555555557 13.866666666666669)"/><path d="M1000 1206a6 6 0 0 1 6-6h188a6 6 0 0 1 6 6v88a6 6 0 0 1-6 6h-188a6 6 0 0 1-6-6z" stroke="#4881b3" stroke-width="3" fill="#f5fbff"/><use xlink:href="#C" transform="matrix(1,0,0,1,1012,1212) translate(24.025 41.6)"/><path d="M902.5 1250H980" stroke="#224c72" stroke-width="2" fill="none"/><path d="M902.53 1251h-1.03v-2h1.03z" stroke="#224c72" stroke-width=".05" fill="#224c72"/><path d="M995.26 1250l-14.26 4.63v-9.27z" stroke="#224c72" stroke-width="2" fill="#224c72"/><path d="M2300 606a6 6 0 0 1 6-6h188a6 6 0 0 1 6 6v88a6 6 0 0 1-6 6h-188a6 6 0 0 1-6-6z" stroke="#4881b3" stroke-width="3" fill="#f5fbff"/><g><use xlink:href="#D" transform="matrix(1,0,0,1,2312,612) translate(62.574999999999996 41.6)"/></g><path d="M1800 501.08v42.2a6 6 0 0 0 6 6h588a6 6 0 0 1 6 6V580" stroke="#224c72" stroke-width="2" fill="none"/><path d="M1800 500.08l1-.04v1.07h-2v-1.06z" stroke="#224c72" stroke-width=".05" fill="#224c72"/><path d="M2400 595.26l-4.64-14.26h9.28z" stroke="#224c72" stroke-width="2" fill="#224c72"/><g><use xlink:href="#m" transform="matrix(1,0,0,1,2300.382815730022,523.692622879438) translate(0.004999999999999005 14.4)"/></g><path d="M2300 806a6 6 0 0 1 6-6h188a6 6 0 0 1 6 6v88a6 6 0 0 1-6 6h-188a6 6 0 0 1-6-6z" stroke="#4881b3" stroke-width="3" fill="#f5fbff"/><g><use xlink:href="#E" transform="matrix(1,0,0,1,2312,812) translate(40.074999999999996 41.6)"/><use xlink:href="#F" transform="matrix(1,0,0,1,2312,812) translate(69.025 41.6)"/></g><path d="M2400 702.5V780" stroke="#224c72" stroke-width="2" fill="none"/><path d="M2401 702.53h-2v-1.03h2z" stroke="#224c72" stroke-width=".05" fill="#224c72"/><path d="M2400 795.26l-4.64-14.26h9.28z" stroke="#224c72" stroke-width="2" fill="#224c72"/><defs><path fill="#1d262b" d="M33 0v-248h34V0H33" id="G"/><path fill="#1d262b" d="M117-194c89-4 53 116 60 194h-32v-121c0-31-8-49-39-48C34-167 62-67 57 0H25l-1-190h30c1 10-1 24 2 32 11-22 29-35 61-36" id="H"/><path fill="#1d262b" d="M85-194c31 0 48 13 60 33l-1-100h32l1 261h-30c-2-10 0-23-3-31C134-8 116 4 85 4 32 4 16-35 15-94c0-66 23-100 70-100zm9 24c-40 0-46 34-46 75 0 40 6 74 45 74 42 0 51-32 51-76 0-42-9-74-50-73" id="I"/><path fill="#1d262b" d="M100-194c63 0 86 42 84 106H49c0 40 14 67 53 68 26 1 43-12 49-29l28 8c-11 28-37 45-77 45C44 4 14-33 15-96c1-61 26-98 85-98zm52 81c6-60-76-77-97-28-3 7-6 17-6 28h103" id="J"/><path fill="#1d262b" d="M141 0L90-78 38 0H4l68-98-65-92h35l48 74 47-74h35l-64 92 68 98h-35" id="K"/><g id="a"><use transform="matrix(0.05,0,0,0.05,0,0)" xlink:href="#G"/><use transform="matrix(0.05,0,0,0.05,5,0)" xlink:href="#H"/><use transform="matrix(0.05,0,0,0.05,15,0)" xlink:href="#I"/><use transform="matrix(0.05,0,0,0.05,25,0)" xlink:href="#J"/><use transform="matrix(0.05,0,0,0.05,35,0)" xlink:href="#K"/></g><path fill="#1d262b" d="M30 0v-248h33v221h125V0H30" id="L"/><path fill="#1d262b" d="M100-194c62-1 85 37 85 99 1 63-27 99-86 99S16-35 15-95c0-66 28-99 85-99zM99-20c44 1 53-31 53-75 0-43-8-75-51-75s-53 32-53 75 10 74 51 75" id="M"/><path fill="#1d262b" d="M177-190C167-65 218 103 67 71c-23-6-38-20-44-43l32-5c15 47 100 32 89-28v-30C133-14 115 1 83 1 29 1 15-40 15-95c0-56 16-97 71-98 29-1 48 16 59 35 1-10 0-23 2-32h30zM94-22c36 0 50-32 50-73 0-42-14-75-50-75-39 0-46 34-46 75s6 73 46 73" id="N"/><path fill="#1d262b" d="M24-231v-30h32v30H24zM24 0v-190h32V0H24" id="O"/><path fill="#1d262b" d="M0 4l72-265h28L28 4H0" id="P"/><path fill="#1d262b" d="M233-177c-1 41-23 64-60 70L243 0h-38l-65-103H63V0H30v-248c88 3 205-21 203 71zM63-129c60-2 137 13 137-47 0-61-80-42-137-45v92" id="Q"/><path fill="#1d262b" d="M135-143c-3-34-86-38-87 0 15 53 115 12 119 90S17 21 10-45l28-5c4 36 97 45 98 0-10-56-113-15-118-90-4-57 82-63 122-42 12 7 21 19 24 35" id="R"/><path fill="#1d262b" d="M59-47c-2 24 18 29 38 22v24C64 9 27 4 27-40v-127H5v-23h24l9-43h21v43h35v23H59v120" id="S"/><path fill="#1d262b" d="M114-163C36-179 61-72 57 0H25l-1-190h30c1 12-1 29 2 39 6-27 23-49 58-41v29" id="T"/><g id="b"><use transform="matrix(0.05,0,0,0.05,0,0)" xlink:href="#L"/><use transform="matrix(0.05,0,0,0.05,10,0)" xlink:href="#M"/><use transform="matrix(0.05,0,0,0.05,20,0)" xlink:href="#N"/><use transform="matrix(0.05,0,0,0.05,30,0)" xlink:href="#O"/><use transform="matrix(0.05,0,0,0.05,33.95,0)" xlink:href="#H"/><use transform="matrix(0.05,0,0,0.05,43.95,0)" xlink:href="#P"/><use transform="matrix(0.05,0,0,0.05,48.95,0)" xlink:href="#Q"/><use transform="matrix(0.05,0,0,0.05,61.900000000000006,0)" xlink:href="#J"/><use transform="matrix(0.05,0,0,0.05,71.9,0)" xlink:href="#N"/><use transform="matrix(0.05,0,0,0.05,81.9,0)" xlink:href="#O"/><use transform="matrix(0.05,0,0,0.05,85.85000000000001,0)" xlink:href="#R"/><use transform="matrix(0.05,0,0,0.05,94.85000000000001,0)" xlink:href="#S"/><use transform="matrix(0.05,0,0,0.05,99.85000000000001,0)" xlink:href="#J"/><use transform="matrix(0.05,0,0,0.05,109.85000000000001,0)" xlink:href="#T"/></g><path fill="#1d262b" d="M185-189c-5-48-123-54-124 2 14 75 158 14 163 119 3 78-121 87-175 55-17-10-28-26-33-46l33-7c5 56 141 63 141-1 0-78-155-14-162-118-5-82 145-84 179-34 5 7 8 16 11 25" id="U"/><path fill="#1d262b" d="M24 0v-261h32V0H24" id="V"/><path fill="#1d262b" d="M96-169c-40 0-48 33-48 73s9 75 48 75c24 0 41-14 43-38l32 2c-6 37-31 61-74 61-59 0-76-41-82-99-10-93 101-131 147-64 4 7 5 14 7 22l-32 3c-4-21-16-35-41-35" id="W"/><g id="c"><use transform="matrix(0.05,0,0,0.05,0,0)" xlink:href="#U"/><use transform="matrix(0.05,0,0,0.05,12,0)" xlink:href="#J"/><use transform="matrix(0.05,0,0,0.05,22,0)" xlink:href="#V"/><use transform="matrix(0.05,0,0,0.05,25.950000000000003,0)" xlink:href="#J"/><use transform="matrix(0.05,0,0,0.05,35.95,0)" xlink:href="#W"/><use transform="matrix(0.05,0,0,0.05,44.95,0)" xlink:href="#S"/></g><path fill="#1d262b" d="M141-36C126-15 110 5 73 4 37 3 15-17 15-53c-1-64 63-63 125-63 3-35-9-54-41-54-24 1-41 7-42 31l-33-3c5-37 33-52 76-52 45 0 72 20 72 64v82c-1 20 7 32 28 27v20c-31 9-61-2-59-35zM48-53c0 20 12 33 32 33 41-3 63-29 60-74-43 2-92-5-92 41" id="X"/><use transform="matrix(0.05,0,0,0.05,0,0)" xlink:href="#X" id="d"/><path fill="#1d262b" d="M115-194c55 1 70 41 70 98S169 2 115 4C84 4 66-9 55-30l1 105H24l-1-265h31l2 30c10-21 28-34 59-34zm-8 174c40 0 45-34 45-75s-6-73-45-74c-42 0-51 32-51 76 0 43 10 73 51 73" id="Y"/><g id="e"><use transform="matrix(0.05,0,0,0.05,0,0)" xlink:href="#M"/><use transform="matrix(0.05,0,0,0.05,10,0)" xlink:href="#Y"/><use transform="matrix(0.05,0,0,0.05,20,0)" xlink:href="#S"/><use transform="matrix(0.05,0,0,0.05,25,0)" xlink:href="#O"/><use transform="matrix(0.05,0,0,0.05,28.950000000000003,0)" xlink:href="#M"/><use transform="matrix(0.05,0,0,0.05,38.95,0)" xlink:href="#H"/></g><path fill="#1d262b" d="M106-169C34-169 62-67 57 0H25v-261h32l-1 103c12-21 28-36 61-36 89 0 53 116 60 194h-32v-121c2-32-8-49-39-48" id="Z"/><path fill="#1d262b" d="M212-179c-10-28-35-45-73-45-59 0-87 40-87 99 0 60 29 101 89 101 43 0 62-24 78-52l27 14C228-24 195 4 139 4 59 4 22-46 18-125c-6-104 99-153 187-111 19 9 31 26 39 46" id="aa"/><path fill="#1d262b" d="M84 4C-5 8 30-112 23-190h32v120c0 31 7 50 39 49 72-2 45-101 50-169h31l1 190h-30c-1-10 1-25-2-33-11 22-28 36-60 37" id="ab"/><g id="f"><use transform="matrix(0.05,0,0,0.05,0,0)" xlink:href="#U"/><use transform="matrix(0.05,0,0,0.05,12,0)" xlink:href="#J"/><use transform="matrix(0.05,0,0,0.05,22,0)" xlink:href="#X"/><use transform="matrix(0.05,0,0,0.05,32,0)" xlink:href="#T"/><use transform="matrix(0.05,0,0,0.05,37.95,0)" xlink:href="#W"/><use transform="matrix(0.05,0,0,0.05,46.95,0)" xlink:href="#Z"/><use transform="matrix(0.05,0,0,0.05,56.95,0)" xlink:href="#aa"/><use transform="matrix(0.05,0,0,0.05,69.9,0)" xlink:href="#M"/><use transform="matrix(0.05,0,0,0.05,79.9,0)" xlink:href="#ab"/><use transform="matrix(0.05,0,0,0.05,89.9,0)" xlink:href="#T"/><use transform="matrix(0.05,0,0,0.05,95.85000000000001,0)" xlink:href="#R"/><use transform="matrix(0.05,0,0,0.05,104.85000000000001,0)" xlink:href="#J"/></g><path fill="#1d262b" d="M205 0l-28-72H64L36 0H1l101-248h38L239 0h-34zm-38-99l-47-123c-12 45-31 82-46 123h93" id="ac"/><g id="g"><use transform="matrix(0.05,0,0,0.05,0,0)" xlink:href="#ac"/><use transform="matrix(0.05,0,0,0.05,12,0)" xlink:href="#I"/><use transform="matrix(0.05,0,0,0.05,22,0)" xlink:href="#I"/><use transform="matrix(0.05,0,0,0.05,32,0)" xlink:href="#aa"/><use transform="matrix(0.05,0,0,0.05,44.95,0)" xlink:href="#M"/><use transform="matrix(0.05,0,0,0.05,54.95,0)" xlink:href="#ab"/><use transform="matrix(0.05,0,0,0.05,64.95,0)" xlink:href="#T"/><use transform="matrix(0.05,0,0,0.05,70.9,0)" xlink:href="#R"/><use transform="matrix(0.05,0,0,0.05,79.9,0)" xlink:href="#J"/></g><path fill="#1d262b" d="M143 0L79-87 56-68V0H24v-261h32v163l83-92h37l-77 82L181 0h-38" id="ad"/><g id="h"><use transform="matrix(0.05,0,0,0.05,0,0)" xlink:href="#aa"/><use transform="matrix(0.05,0,0,0.05,12.950000000000001,0)" xlink:href="#V"/><use transform="matrix(0.05,0,0,0.05,16.900000000000002,0)" xlink:href="#O"/><use transform="matrix(0.05,0,0,0.05,20.85,0)" xlink:href="#W"/><use transform="matrix(0.05,0,0,0.05,29.85,0)" xlink:href="#ad"/></g><path fill="#1d262b" d="M101-234c-31-9-42 10-38 44h38v23H63V0H32v-167H5v-23h27c-7-52 17-82 69-68v24" id="ae"/><g id="i"><use transform="matrix(0.05,0,0,0.05,0,0)" xlink:href="#O"/><use transform="matrix(0.05,0,0,0.05,3.95,0)" xlink:href="#ae"/></g><g id="j"><use transform="matrix(0.05,0,0,0.05,0,0)" xlink:href="#ab"/><use transform="matrix(0.05,0,0,0.05,10,0)" xlink:href="#R"/><use transform="matrix(0.05,0,0,0.05,19,0)" xlink:href="#J"/><use transform="matrix(0.05,0,0,0.05,29,0)" xlink:href="#T"/></g><g id="k"><use transform="matrix(0.05,0,0,0.05,0,0)" xlink:href="#V"/><use transform="matrix(0.05,0,0,0.05,3.95,0)" xlink:href="#M"/><use transform="matrix(0.05,0,0,0.05,13.949999999999998,0)" xlink:href="#N"/><use transform="matrix(0.05,0,0,0.05,23.95,0)" xlink:href="#N"/><use transform="matrix(0.05,0,0,0.05,33.95,0)" xlink:href="#J"/><use transform="matrix(0.05,0,0,0.05,43.95,0)" xlink:href="#I"/></g><g id="l"><use transform="matrix(0.05,0,0,0.05,0,0)" xlink:href="#O"/><use transform="matrix(0.05,0,0,0.05,3.95,0)" xlink:href="#H"/></g><path fill="#1d262b" d="M127-220V0H93v-220H8v-28h204v28h-85" id="af"/><g id="m"><use transform="matrix(0.05,0,0,0.05,0,0)" xlink:href="#af"/><use transform="matrix(0.05,0,0,0.05,10.3,0)" xlink:href="#T"/><use transform="matrix(0.05,0,0,0.05,16.25,0)" xlink:href="#ab"/><use transform="matrix(0.05,0,0,0.05,26.25,0)" xlink:href="#J"/></g><path fill="#1d262b" d="M63-220v92h138v28H63V0H30v-248h175v28H63" id="ag"/><g id="n"><use transform="matrix(0.05,0,0,0.05,0,0)" xlink:href="#ag"/><use transform="matrix(0.05,0,0,0.05,10.950000000000001,0)" xlink:href="#X"/><use transform="matrix(0.05,0,0,0.05,20.950000000000003,0)" xlink:href="#V"/><use transform="matrix(0.05,0,0,0.05,24.900000000000002,0)" xlink:href="#R"/><use transform="matrix(0.05,0,0,0.05,33.900000000000006,0)" xlink:href="#J"/></g><g id="o"><use transform="matrix(0.05,0,0,0.05,0,0)" xlink:href="#aa"/><use transform="matrix(0.05,0,0,0.05,12.950000000000001,0)" xlink:href="#M"/><use transform="matrix(0.05,0,0,0.05,22.950000000000003,0)" xlink:href="#ab"/><use transform="matrix(0.05,0,0,0.05,32.95,0)" xlink:href="#T"/><use transform="matrix(0.05,0,0,0.05,38.900000000000006,0)" xlink:href="#R"/><use transform="matrix(0.05,0,0,0.05,47.900000000000006,0)" xlink:href="#J"/></g><g id="p"><use transform="matrix(0.05,0,0,0.05,0,0)" xlink:href="#aa"/><use transform="matrix(0.05,0,0,0.05,12.950000000000001,0)" xlink:href="#M"/><use transform="matrix(0.05,0,0,0.05,22.950000000000003,0)" xlink:href="#ab"/><use transform="matrix(0.05,0,0,0.05,32.95,0)" xlink:href="#T"/><use transform="matrix(0.05,0,0,0.05,38.900000000000006,0)" xlink:href="#R"/><use transform="matrix(0.05,0,0,0.05,47.900000000000006,0)" xlink:href="#J"/><use transform="matrix(0.05,0,0,0.05,57.900000000000006,0)" xlink:href="#U"/><use transform="matrix(0.05,0,0,0.05,69.9,0)" xlink:href="#J"/><use transform="matrix(0.05,0,0,0.05,79.9,0)" xlink:href="#V"/><use transform="matrix(0.05,0,0,0.05,83.85000000000001,0)" xlink:href="#J"/><use transform="matrix(0.05,0,0,0.05,93.85000000000001,0)" xlink:href="#W"/><use transform="matrix(0.05,0,0,0.05,102.85000000000001,0)" xlink:href="#S"/><use transform="matrix(0.05,0,0,0.05,107.85000000000001,0)" xlink:href="#J"/><use transform="matrix(0.05,0,0,0.05,117.85000000000001,0)" xlink:href="#I"/></g><g id="q"><use transform="matrix(0.05,0,0,0.05,0,0)" xlink:href="#L"/><use transform="matrix(0.05,0,0,0.05,10,0)" xlink:href="#O"/><use transform="matrix(0.05,0,0,0.05,13.949999999999998,0)" xlink:href="#R"/><use transform="matrix(0.05,0,0,0.05,22.95,0)" xlink:href="#S"/><use transform="matrix(0.05,0,0,0.05,27.950000000000003,0)" xlink:href="#L"/><use transform="matrix(0.05,0,0,0.05,37.95,0)" xlink:href="#J"/><use transform="matrix(0.05,0,0,0.05,47.95,0)" xlink:href="#R"/><use transform="matrix(0.05,0,0,0.05,56.95,0)" xlink:href="#R"/><use transform="matrix(0.05,0,0,0.05,65.95,0)" xlink:href="#M"/><use transform="matrix(0.05,0,0,0.05,75.95,0)" xlink:href="#H"/><use transform="matrix(0.05,0,0,0.05,85.95,0)" xlink:href="#R"/></g><g id="r"><use transform="matrix(0.05,0,0,0.05,0,0)" xlink:href="#ac"/><use transform="matrix(0.05,0,0,0.05,12,0)" xlink:href="#T"/><use transform="matrix(0.05,0,0,0.05,17.95,0)" xlink:href="#J"/></g><path fill="#1d262b" d="M179-190L93 31C79 59 56 82 12 73V49c39 6 53-20 64-50L1-190h34L92-34l54-156h33" id="ah"/><g id="s"><use transform="matrix(0.05,0,0,0.05,0,0)" xlink:href="#ah"/><use transform="matrix(0.05,0,0,0.05,9,0)" xlink:href="#M"/><use transform="matrix(0.05,0,0,0.05,19,0)" xlink:href="#ab"/></g><path fill="#1d262b" d="M115-194c53 0 69 39 70 98 0 66-23 100-70 100C84 3 66-7 56-30L54 0H23l1-261h32v101c10-23 28-34 59-34zm-8 174c40 0 45-34 45-75 0-40-5-75-45-74-42 0-51 32-51 76 0 43 10 73 51 73" id="ai"/><path fill="#1d262b" d="M103-251c84 0 111 97 45 133-19 10-37 24-39 52H78c0-63 77-55 77-114 0-30-21-42-52-43-32 0-53 17-56 46l-32-2c7-45 34-72 88-72zM77 0v-35h34V0H77" id="aj"/><g id="t"><use transform="matrix(0.05,0,0,0.05,0,0)" xlink:href="#R"/><use transform="matrix(0.05,0,0,0.05,9,0)" xlink:href="#ab"/><use transform="matrix(0.05,0,0,0.05,19,0)" xlink:href="#ai"/><use transform="matrix(0.05,0,0,0.05,29,0)" xlink:href="#R"/><use transform="matrix(0.05,0,0,0.05,38,0)" xlink:href="#W"/><use transform="matrix(0.05,0,0,0.05,47,0)" xlink:href="#T"/><use transform="matrix(0.05,0,0,0.05,52.95,0)" xlink:href="#O"/><use transform="matrix(0.05,0,0,0.05,56.900000000000006,0)" xlink:href="#ai"/><use transform="matrix(0.05,0,0,0.05,66.9,0)" xlink:href="#J"/><use transform="matrix(0.05,0,0,0.05,76.9,0)" xlink:href="#I"/><use transform="matrix(0.05,0,0,0.05,86.9,0)" xlink:href="#aj"/></g><g id="u"><use transform="matrix(0.05,0,0,0.05,0,0)" xlink:href="#U"/><use transform="matrix(0.05,0,0,0.05,12,0)" xlink:href="#S"/><use transform="matrix(0.05,0,0,0.05,17,0)" xlink:href="#X"/><use transform="matrix(0.05,0,0,0.05,27,0)" xlink:href="#T"/><use transform="matrix(0.05,0,0,0.05,32.95,0)" xlink:href="#S"/></g><g id="v"><use transform="matrix(0.05,0,0,0.05,0,0)" xlink:href="#V"/><use transform="matrix(0.05,0,0,0.05,3.95,0)" xlink:href="#J"/><use transform="matrix(0.05,0,0,0.05,13.949999999999998,0)" xlink:href="#R"/><use transform="matrix(0.05,0,0,0.05,22.95,0)" xlink:href="#R"/><use transform="matrix(0.05,0,0,0.05,31.950000000000003,0)" xlink:href="#M"/><use transform="matrix(0.05,0,0,0.05,41.95,0)" xlink:href="#H"/></g><path fill="#1d262b" d="M160-131c35 5 61 23 61 61C221 17 115-2 30 0v-248c76 3 177-17 177 60 0 33-19 50-47 57zm-97-11c50-1 110 9 110-42 0-47-63-36-110-37v79zm0 115c55-2 124 14 124-45 0-56-70-42-124-44v89" id="ak"/><g id="w"><use transform="matrix(0.05,0,0,0.05,0,0)" xlink:href="#ak"/><use transform="matrix(0.05,0,0,0.05,12,0)" xlink:href="#ab"/><use transform="matrix(0.05,0,0,0.05,22,0)" xlink:href="#ah"/><use transform="matrix(0.05,0,0,0.05,31,0)" xlink:href="#aa"/><use transform="matrix(0.05,0,0,0.05,43.95,0)" xlink:href="#M"/><use transform="matrix(0.05,0,0,0.05,53.95,0)" xlink:href="#ab"/><use transform="matrix(0.05,0,0,0.05,63.95,0)" xlink:href="#T"/><use transform="matrix(0.05,0,0,0.05,69.9,0)" xlink:href="#R"/><use transform="matrix(0.05,0,0,0.05,78.9,0)" xlink:href="#J"/></g><g id="x"><use transform="matrix(0.05,0,0,0.05,0,0)" xlink:href="#aa"/><use transform="matrix(0.05,0,0,0.05,12.950000000000001,0)" xlink:href="#X"/><use transform="matrix(0.05,0,0,0.05,22.950000000000003,0)" xlink:href="#H"/><use transform="matrix(0.05,0,0,0.05,32.95,0)" xlink:href="#W"/><use transform="matrix(0.05,0,0,0.05,41.95,0)" xlink:href="#J"/><use transform="matrix(0.05,0,0,0.05,51.95,0)" xlink:href="#V"/></g><g id="y"><use transform="matrix(0.05,0,0,0.05,0,0)" xlink:href="#Y"/><use transform="matrix(0.05,0,0,0.05,10,0)" xlink:href="#ab"/><use transform="matrix(0.05,0,0,0.05,20,0)" xlink:href="#T"/><use transform="matrix(0.05,0,0,0.05,25.950000000000003,0)" xlink:href="#W"/><use transform="matrix(0.05,0,0,0.05,34.95,0)" xlink:href="#Z"/><use transform="matrix(0.05,0,0,0.05,44.95,0)" xlink:href="#X"/><use transform="matrix(0.05,0,0,0.05,54.95,0)" xlink:href="#R"/><use transform="matrix(0.05,0,0,0.05,63.95,0)" xlink:href="#J"/></g><g id="z"><use transform="matrix(0.048148148148148155,0,0,0.048148148148148155,0,0)" xlink:href="#U"/><use transform="matrix(0.048148148148148155,0,0,0.048148148148148155,11.555555555555557,0)" xlink:href="#ab"/><use transform="matrix(0.048148148148148155,0,0,0.048148148148148155,21.18518518518519,0)" xlink:href="#W"/><use transform="matrix(0.048148148148148155,0,0,0.048148148148148155,29.851851851851855,0)" xlink:href="#W"/><use transform="matrix(0.048148148148148155,0,0,0.048148148148148155,38.518518518518526,0)" xlink:href="#J"/><use transform="matrix(0.048148148148148155,0,0,0.048148148148148155,48.14814814814816,0)" xlink:href="#R"/><use transform="matrix(0.048148148148148155,0,0,0.048148148148148155,56.814814814814824,0)" xlink:href="#R"/><use transform="matrix(0.048148148148148155,0,0,0.048148148148148155,65.4814814814815,0)" xlink:href="#ae"/><use transform="matrix(0.048148148148148155,0,0,0.048148148148148155,70.2962962962963,0)" xlink:href="#ab"/><use transform="matrix(0.048148148148148155,0,0,0.048148148148148155,79.92592592592594,0)" xlink:href="#V"/></g><g id="A"><use transform="matrix(0.048148148148148155,0,0,0.048148148148148155,0,0)" xlink:href="#Y"/><use transform="matrix(0.048148148148148155,0,0,0.048148148148148155,9.629629629629632,0)" xlink:href="#ab"/><use transform="matrix(0.048148148148148155,0,0,0.048148148148148155,19.259259259259263,0)" xlink:href="#T"/><use transform="matrix(0.048148148148148155,0,0,0.048148148148148155,24.988888888888894,0)" xlink:href="#W"/><use transform="matrix(0.048148148148148155,0,0,0.048148148148148155,33.655555555555566,0)" xlink:href="#Z"/><use transform="matrix(0.048148148148148155,0,0,0.048148148148148155,43.2851851851852,0)" xlink:href="#X"/><use transform="matrix(0.048148148148148155,0,0,0.048148148148148155,52.91481481481483,0)" xlink:href="#R"/><use transform="matrix(0.048148148148148155,0,0,0.048148148148148155,61.581481481481504,0)" xlink:href="#J"/></g><g id="B"><use transform="matrix(0.048148148148148155,0,0,0.048148148148148155,0,0)" xlink:href="#ag"/><use transform="matrix(0.048148148148148155,0,0,0.048148148148148155,10.544444444444446,0)" xlink:href="#X"/><use transform="matrix(0.048148148148148155,0,0,0.048148148148148155,20.174074074074078,0)" xlink:href="#O"/><use transform="matrix(0.048148148148148155,0,0,0.048148148148148155,23.97777777777778,0)" xlink:href="#V"/><use transform="matrix(0.048148148148148155,0,0,0.048148148148148155,27.781481481481485,0)" xlink:href="#J"/><use transform="matrix(0.048148148148148155,0,0,0.048148148148148155,37.41111111111112,0)" xlink:href="#I"/></g><g id="C"><use transform="matrix(0.05,0,0,0.05,0,0)" xlink:href="#L"/><use transform="matrix(0.05,0,0,0.05,10,0)" xlink:href="#J"/><use transform="matrix(0.05,0,0,0.05,20,0)" xlink:href="#R"/><use transform="matrix(0.05,0,0,0.05,29,0)" xlink:href="#R"/><use transform="matrix(0.05,0,0,0.05,38,0)" xlink:href="#M"/><use transform="matrix(0.05,0,0,0.05,48,0)" xlink:href="#H"/><use transform="matrix(0.05,0,0,0.05,58,0)" xlink:href="#U"/><use transform="matrix(0.05,0,0,0.05,70,0)" xlink:href="#J"/><use transform="matrix(0.05,0,0,0.05,80,0)" xlink:href="#V"/><use transform="matrix(0.05,0,0,0.05,83.95,0)" xlink:href="#J"/><use transform="matrix(0.05,0,0,0.05,93.95,0)" xlink:href="#W"/><use transform="matrix(0.05,0,0,0.05,102.95,0)" xlink:href="#S"/><use transform="matrix(0.05,0,0,0.05,107.95,0)" xlink:href="#J"/><use transform="matrix(0.05,0,0,0.05,117.95,0)" xlink:href="#I"/></g><path fill="#1d262b" d="M30-248c87 1 191-15 191 75 0 78-77 80-158 76V0H30v-248zm33 125c57 0 124 11 124-50 0-59-68-47-124-48v98" id="al"/><g id="D"><use transform="matrix(0.05,0,0,0.05,0,0)" xlink:href="#al"/><use transform="matrix(0.05,0,0,0.05,12,0)" xlink:href="#T"/><use transform="matrix(0.05,0,0,0.05,17.95,0)" xlink:href="#M"/><use transform="matrix(0.05,0,0,0.05,27.950000000000003,0)" xlink:href="#ae"/><use transform="matrix(0.05,0,0,0.05,32.95,0)" xlink:href="#O"/><use transform="matrix(0.05,0,0,0.05,36.900000000000006,0)" xlink:href="#V"/><use transform="matrix(0.05,0,0,0.05,40.85000000000001,0)" xlink:href="#J"/></g><path fill="#1d262b" d="M240 0l2-218c-23 76-54 145-80 218h-23L58-218 59 0H30v-248h44l77 211c21-75 51-140 76-211h43V0h-30" id="am"/><g id="E"><use transform="matrix(0.05,0,0,0.05,0,0)" xlink:href="#am"/><use transform="matrix(0.05,0,0,0.05,14.950000000000001,0)" xlink:href="#ah"/></g><g id="F"><use transform="matrix(0.05,0,0,0.05,0,0)" xlink:href="#aa"/><use transform="matrix(0.05,0,0,0.05,12.950000000000001,0)" xlink:href="#M"/><use transform="matrix(0.05,0,0,0.05,22.950000000000003,0)" xlink:href="#ab"/><use transform="matrix(0.05,0,0,0.05,32.95,0)" xlink:href="#T"/><use transform="matrix(0.05,0,0,0.05,38.900000000000006,0)" xlink:href="#R"/><use transform="matrix(0.05,0,0,0.05,47.900000000000006,0)" xlink:href="#J"/><use transform="matrix(0.05,0,0,0.05,57.900000000000006,0)" xlink:href="#R"/></g></defs></g></svg>